PathFileType	4	(X/Y/Z)	walk-thru1-1-TP.trc
DataRate	CameraRate	NumFrames	NumMarkers	Units	OrigDataRate	OrigDataStartFrame	OrigNumFrames
120.00	120.00	       4	60	mm	120.00	386	       514
Frame#	Time	Top.Head			Front.Head			Rear.Head			Jaw			C7			R.Clavicle			L.Clavicle			R.Shoulder			L.Shoulder			R.Scapula			L.Scapula			R.Scap.Inf			R.Biceps.Lateral			R.Elbow			R.Elbow.Medial			R.Forearm			R.Ulna			R.Radius			R.Wrist			R.Thumb.M1			R.Thumb.M2			R.Thumb.M3			R.Finger3.M1			R.Finger3.M2			R.Finger3.M3			L.Biceps.Lateral			L.Elbow			L.Elbow.Medial			L.Forearm			L.Ulna			L.Radius			L.Wrist			L.Thumb.M1			L.Thumb.M2			L.Thumb.M3			L.Finger3.M1			L.Finger3.M2			L.Finger3.M3			V.Sacral			R.ASIS			L.ASIS			R.Thigh			R.Thigh.Front			R.Knee			R.Knee.Medial			R.Shank			R.Ankle			R.Ankle.Medial			R.Heel			R.Toe			R.MedFoot			L.Thigh			L.Knee			L.Knee.Medial			L.Shank			L.Ankle			L.Ankle.Medial			L.Heel			L.Toe			L.MedFoot			V_mid_ASIS			V_R_Knee_JC			V_L_Knee_JC			V_R_Elbow_JC			V_L_Elbow_JC			V_R_Ankle_JC			V_L_Ankle_JC			V_R_Wrist_JC			V_L_Wrist_JC			V_R_ScaTrpz_1stMC_JC			V_R_1stMC_1stPP_JC			V_R_1stPP_1stDP_JC			V_R_LunCap_3rdMC_JC			V_R_3rdMC_3rdPP_JC			V_R_3rdPP_3rdMP_JC			V_R_3rdMP_3rdDP_JC			V_L_ScaTrpz_1stMC_JC			V_L_1stMC_1stPP_JC			V_L_1stPP_1stDP_JC			V_L_LunCap_3rdMC_JC			V_L_3rdMC_3rdPP_JC			V_L_3rdPP_3rdMP_JC			V_L_3rdMP_3rdPP_JC			V_ROOT_JC			V_R_Hip_JC			V_L_Hip_JC			V_R_GlenHum_JC			V_L_GlenHum_JC			V_ForeHead_Ctr			V_Vertex			V_Sagit_Lambdoid_Suture			V_R_FrontoTemp			V_L_FrontoTemporal			V_R_ParietalOccip			V_L_ParietalOcciptal			V_R_Temporal			V_L_Temporal			V_mid_FrontRearHead			V_mid_RLGlenHumCtrs			V_C7_vert			V_C1_vert			V_Mid_Hip			
		X1	Y1	Z1	X2	Y2	Z2	X3	Y3	Z3	X4	Y4	Z4	X5	Y5	Z5	X6	Y6	Z6	X7	Y7	Z7	X8	Y8	Z8	X9	Y9	Z9	X10	Y10	Z10	X11	Y11	Z11	X12	Y12	Z12	X13	Y13	Z13	X14	Y14	Z14	X15	Y15	Z15	X16	Y16	Z16	X17	Y17	Z17	X18	Y18	Z18	X19	Y19	Z19	X20	Y20	Z20	X21	Y21	Z21	X22	Y22	Z22	X23	Y23	Z23	X24	Y24	Z24	X25	Y25	Z25	X26	Y26	Z26	X27	Y27	Z27	X28	Y28	Z28	X29	Y29	Z29	X30	Y30	Z30	X31	Y31	Z31	X32	Y32	Z32	X33	Y33	Z33	X34	Y34	Z34	X35	Y35	Z35	X36	Y36	Z36	X37	Y37	Z37	X38	Y38	Z38	X39	Y39	Z39	X40	Y40	Z40	X41	Y41	Z41	X42	Y42	Z42	X43	Y43	Z43	X44	Y44	Z44	X45	Y45	Z45	X46	Y46	Z46	X47	Y47	Z47	X48	Y48	Z48	X49	Y49	Z49	X50	Y50	Z50	X51	Y51	Z51	X52	Y52	Z52	X53	Y53	Z53	X54	Y54	Z54	X55	Y55	Z55	X56	Y56	Z56	X57	Y57	Z57	X58	Y58	Z58	X59	Y59	Z59	X60	Y60	Z60	

386	3.208	-1028.03125	-78.33596	1753.59888	-1113.90881	-59.56753	1620.96814	-887.52850	-81.78445	1694.94006	-1005.27435	-59.70805	1458.45715	-783.12805	-68.30885	1573.18262	-874.71991	57.28494	1493.41772	-881.67712	-186.72980	1470.72534	-821.12299	162.34991	1491.58313	-837.84570	-291.39435	1469.84656	-709.32037	31.79799	1492.85986	-709.38184	-160.72072	1475.20874	-674.76532	38.15826	1403.79211	-774.40070	200.97517	1356.11194	-696.30310	232.96646	1179.62512	-700.41339	136.71564	1167.97620	-786.68158	235.14482	1107.13635	-715.48688	240.83047	976.38586	-825.39893	232.87871	937.31451	-824.66626	276.38312	906.00555	-839.30933	223.66919	892.90411	-834.60675	189.69562	850.81818	-823.47046	180.80934	798.09320	-830.85211	278.73499	820.05048	-788.33069	230.07593	770.98932	-763.53888	181.68207	803.62909	-781.57507	-318.49091	1325.30017	-722.82080	-332.22195	1155.51465	-710.14606	-238.84480	1131.10010	-811.31769	-330.64246	1080.43518	-761.14929	-355.50272	971.07025	-861.90210	-333.41351	924.50964	-844.75854	-375.13849	890.46637	-890.15906	-333.45825	873.08673	-913.00922	-310.11292	829.10223	-929.40723	-314.03452	781.54822	-880.04932	-390.42108	795.93506	-886.84320	-359.06436	737.72137	-878.60083	-299.37140	736.75885	-642.48816	-48.09450	1126.84131	-833.55640	144.40489	1066.56055	-830.03241	-206.55710	1059.52673	-888.71521	149.04564	702.12463	-989.78827	71.17976	608.08514	-942.25323	131.17387	546.72388	-938.83704	11.46571	538.84863	-898.99072	95.91585	329.44022	-748.41174	130.14052	135.23015	-778.24554	28.40023	146.83945	-684.34454	73.78345	111.12682	-900.18549	94.55544	58.03357	-859.56964	64.10665	103.89429	-791.37299	-196.45190	670.53717	-792.73212	-166.80203	528.09247	-790.64978	-60.02467	513.09747	-790.97778	-115.72963	321.28207	-680.13477	-107.03036	78.53261	-736.45099	-22.30610	112.21810	-646.34576	-31.68621	47.67259	-863.20770	-110.35939	43.01711	-803.48279	-64.92557	86.06274																																																																																																																															
387	3.217	-1033.47949	-78.85219	1752.87219	-1119.01990	-59.62008	1621.15125	-894.17957	-80.92942	1692.57458	-1010.42352	-59.87297	1457.20837	-788.45422	-70.49380	1572.81750	-880.56409	57.41327	1493.65283	-886.76276	-187.46243	1469.83813	-827.29755	162.91899	1491.63562	-842.70624	-290.94318	1469.44751	-715.25757	30.93592	1492.98535	-714.05328	-158.94305	1475.25842	-679.03619	38.55324	1404.26099	-779.09290	201.00021	1355.93811	-701.47906	232.54343	1179.73584	-705.93823	136.72173	1168.22388	-790.79248	234.68951	1106.59692	-720.63507	239.12413	976.30426	-829.56555	233.18018	937.07483	-829.02612	277.50137	905.60321	-843.70264	223.30728	892.52301	-841.06073	189.65868	850.64594	-832.92682	181.86736	798.70319	-834.94055	278.94949	819.10657	-795.77747	228.32657	770.80115	-770.92877	181.60786	803.11218	-786.69019	-318.68005	1325.13745	-728.08423	-332.92599	1154.95630	-714.78296	-238.69275	1130.13110	-816.84259	-332.10953	1080.08911	-766.77380	-356.57175	971.13641	-869.50677	-333.97015	925.16394	-851.23090	-376.91757	890.87000	-897.38342	-334.04007	873.51410	-920.76929	-311.04959	829.96600	-936.57324	-315.88577	782.57190	-887.38074	-390.91614	797.41052	-895.28082	-359.60806	738.01422	-886.96161	-300.74945	737.11212	-647.25665	-47.72157	1126.80066	-836.65338	143.74811	1065.69348	-834.72406	-207.05440	1059.58667	-894.95520	148.20540	702.33710	-996.17975	70.20467	608.85706	-949.62219	130.18863	547.20660	-944.81567	11.68380	540.61920	-912.37366	96.01865	329.47028	-766.31744	129.83701	131.58313	-796.67676	27.29441	143.49611	-703.70978	74.31152	104.27413	-919.27289	94.90608	57.43160	-878.59277	63.36192	102.85708	-793.38269	-196.59270	670.22278	-794.01123	-166.63724	527.96735	-791.87598	-59.75860	512.48285	-791.82178	-114.79846	320.70435	-680.06940	-106.86060	78.54652	-736.42786	-22.08492	112.33010	-647.25000	-31.63340	47.70539	-863.31421	-110.29762	42.98392	-803.45563	-64.71534	85.70142																																																																																																																															
388	3.225	-1038.22571	-79.76108	1750.88965	-1125.15613	-58.47503	1620.52063	-897.73816	-83.74041	1693.15869	-1016.03699	-59.11603	1456.92249	-793.82166	-70.43847	1572.62744	-885.63934	55.94012	1493.34607	-892.16516	-186.90852	1469.56873	-833.43640	162.72752	1492.07910	-847.24908	-291.22479	1469.14563	-721.39777	31.42148	1491.58850	-719.43866	-160.75940	1475.16895	-684.65131	37.75204	1403.69983	-783.58295	200.19920	1356.11841	-706.54474	231.06340	1178.85596	-711.62659	135.83147	1167.91418	-795.40216	233.98752	1105.73120	-724.51245	237.82310	974.65540	-833.89844	232.81509	936.16638	-832.75696	277.72977	904.92377	-849.27545	224.20042	891.55774	-848.35394	190.79211	848.47913	-841.63995	184.75041	796.49219	-839.51331	279.63885	819.34857	-802.51050	228.84621	770.78082	-778.04883	179.25676	801.93262	-792.55475	-319.94836	1324.58276	-733.33441	-333.94412	1154.63049	-721.69617	-240.59883	1129.34998	-822.54102	-332.32648	1080.34802	-773.45105	-357.54813	970.57416	-876.11554	-335.24854	925.46613	-857.99304	-377.15912	891.21448	-904.02905	-335.76294	874.21375	-927.24792	-313.02188	831.29633	-943.73553	-316.60611	783.67181	-894.91791	-391.74704	797.42767	-902.29498	-360.75821	738.90613	-894.43567	-301.11575	737.95673	-652.05463	-48.61258	1126.75757	-842.70801	143.79004	1066.40234	-838.12695	-206.64377	1059.51563	-900.62177	147.14296	702.62402	-1001.32379	67.47698	610.38074	-956.13934	129.06825	547.94537	-951.54706	9.39819	541.04163	-924.29999	93.65330	329.11646	-784.75024	130.07632	126.89675	-813.95129	27.97526	139.71402	-722.45483	74.99913	98.80059	-940.46704	94.01138	57.49434	-897.87866	62.18560	102.42445	-796.31555	-196.59790	670.25665	-796.12952	-166.91852	527.68182	-793.50696	-59.07315	513.03143	-792.67639	-114.73146	320.34540	-680.21021	-106.50406	78.49944	-736.62421	-21.92068	112.21631	-647.02161	-31.27426	47.78326	-862.88806	-110.74441	43.04163	-803.64899	-64.63097	85.78560																																																																																																																															
389	3.233	-1044.71533	-80.16722	1752.16541	-1129.04590	-61.27819	1619.65295	-903.75763	-80.97613	1692.60815	-1020.06793	-60.91501	1456.78162	-799.21930	-69.00874	1572.59998	-891.54486	57.30626	1492.47461	-897.53107	-187.67491	1468.68579	-838.59149	161.06059	1491.26331	-852.70380	-291.65594	1469.32495	-727.33704	31.31563	1492.22498	-724.28168	-160.84471	1475.11218	-691.00104	37.54136	1403.07324	-789.58514	200.36568	1354.65759	-711.45215	232.15456	1178.53809	-716.29517	136.62598	1167.92944	-800.28510	233.36115	1105.13660	-728.03217	237.61127	973.58325	-838.39417	231.60051	935.50873	-836.08124	276.46872	904.50464	-853.77075	224.66238	890.00464	-855.27716	193.91763	846.38165	-849.25116	188.75281	794.60272	-844.03101	283.72629	819.13495	-807.35553	230.56927	769.59766	-784.61725	182.07086	800.24561	-796.61835	-319.41614	1324.51111	-739.41284	-335.04343	1153.85925	-725.35071	-241.19250	1128.88586	-828.19476	-332.38315	1080.13098	-780.05890	-357.38974	970.10815	-881.18085	-335.82236	925.74628	-864.77795	-378.53076	891.53503	-911.20331	-336.53244	875.12830	-933.56323	-312.67294	831.80701	-950.59113	-316.91882	784.66711	-902.43750	-393.10959	797.56415	-910.82568	-362.99527	739.88959	-902.37567	-302.11911	738.80981	-657.13782	-48.41103	1125.94824	-846.25513	143.74925	1065.51929	-844.08142	-207.51974	1059.19092	-906.19135	146.67740	702.62103	-1007.31628	67.07690	611.11322	-962.25916	127.33810	548.77264	-956.66943	8.64811	541.62512	-937.15717	93.96394	329.58099	-804.32947	129.28212	122.90219	-832.60596	26.90566	137.18924	-742.21088	75.96875	92.77941	-961.10956	93.69865	57.93682	-917.89465	61.74759	100.55235	-799.20508	-196.10994	670.18036	-798.15210	-166.35985	527.41888	-794.21478	-57.32855	512.36230	-793.56140	-114.35196	320.42175	-680.16406	-106.00886	78.61603	-736.24292	-21.01919	112.04979	-647.18774	-31.25459	47.75539	-863.26874	-110.50274	42.89496	-804.27454	-65.17183	86.05202																																																																																																																															
